<svg xmlns="http://www.w3.org/2000/svg" xmlns:xlink="http://www.w3.org/1999/xlink" xmlns:inkscape="http://www.inkscape.org/namespaces/inkscape" version="1.1" viewBox="170.91 361.5 706.22 273.2">
<g inkscape:groupmode="layer" inkscape:label="Layer 1">

<path transform="matrix(1,0,0,-1,0,1080)" d="M791.9229 718.4699C775.5202 717.4672 769.7174 696.2017 786.2695 696.9274 790.7973 697.1255 797.9627 700.8613 800.4682 705.0158 804.9991 712.529 800.0544 718.9668 791.9229 718.4699" fill="#d91f04" fill-rule="evenodd" data-index="1" style="visibility: hidden;"/>

<path transform="matrix(1,0,0,-1,0,1080)" d="M524.0174 682.0407C716.8263 682.0407 873.129 629.9399 873.129 565.67 873.129 501.4001 716.8263 449.2996 524.0174 449.2996 331.2088 449.2996 174.9059 501.4001 174.9059 565.67 174.9059 629.9399 331.2088 682.0407 524.0174 682.0407Z" fill="#f7d742" fill-rule="evenodd" data-index="3" style="opacity: 1; visibility: visible;"/>
<path transform="matrix(1,0,0,-1,0,1080)" stroke-width="7.9999" stroke-linecap="round" stroke-linejoin="round" fill="none" stroke="#000000" d="M524.0174 682.0407C716.8263 682.0407 873.129 629.9399 873.129 565.67 873.129 501.4001 716.8263 449.2996 524.0174 449.2996 331.2088 449.2996 174.9059 501.4001 174.9059 565.67 174.9059 629.9399 331.2088 682.0407 524.0174 682.0407Z" data-index="4" style="opacity: 1; visibility: visible;"/>
<path transform="matrix(1,0,0,-1,0,1080)" d="M292.2761 565.8409C292.7979 565.8111 293.6183 565.7513 294.7518 565.662 295.8707 565.5725 296.676 565.5277 297.1831 565.5277 301.5533 565.5277 304.7454 566.6613 306.7739 568.9284 308.8023 571.2106 309.8166 574.7902 309.8166 579.6825 309.8166 584.3659 308.7726 587.7666 306.6843 589.8549 304.5963 591.9579 301.2253 593.0019 296.5567 593.0019H292.2761ZM269.9028 597.3871C272.0058 597.2678 274.1837 597.1782 276.4508 597.1187 278.7327 597.0589 281.164 597.0291 283.7594 597.0291 286.3097 597.0291 289.3825 597.0886 292.9771 597.208 296.5567 597.3273 298.8836 597.3871 299.9574 597.3871 308.7575 597.3871 315.216 595.9998 319.3177 593.2406 323.4195 590.4663 325.4777 586.1259 325.4777 580.2043 325.4777 573.7014 323.5238 568.8836 319.6012 565.7513 315.6783 562.6191 309.6524 561.0532 301.4938 561.0532 300.3004 561.0532 298.9729 561.083 297.5114 561.1575 296.0646 561.2321 294.3193 561.3514 292.2761 561.4855V545.1086C292.2761 541.7674 292.7234 539.6346 293.6333 538.7097 294.5282 537.8 296.4971 537.3374 299.5248 537.3374H301.4042V533.1314C297.7948 533.3102 294.6325 533.4446 291.903 533.5342 289.1735 533.6235 286.9064 533.6683 285.1016 533.6683 283.625 533.6683 281.6116 533.6235 279.0609 533.5342 276.5103 533.4446 273.4526 533.3102 269.9028 533.1314V537.3374C273.1992 537.3374 275.2872 537.785 276.1824 538.6949 277.0622 539.5898 277.5098 541.7376 277.5098 545.1086V585.3951C277.5098 588.7809 277.0622 590.9136 276.1523 591.8088 275.2574 592.6887 273.1694 593.151 269.9028 593.1808Z" fill="#d91f04" data-index="5"/>
<path transform="matrix(1,0,0,-1,0,1080)" d="M335.0384 567.3027C335.0384 569.346 334.6954 570.6587 334.0094 571.2403 333.3231 571.822 331.4588 572.18 328.4161 572.3291V576.0879C332.5028 576.237 336.187 576.4011 339.4684 576.58 342.7498 576.7739 345.7477 576.9978 348.4624 577.2512V546.7938C348.4624 543.6765 349.0143 541.4692 350.1181 540.1715 351.2217 538.8738 353.0265 538.2323 355.5323 538.2323 357.7995 538.2323 359.8132 538.8143 361.5729 539.9626 363.333 541.1112 364.75 542.7666 365.8241 544.9144V567.3027C365.8241 569.346 365.4808 570.6587 364.7798 571.2403 364.0788 571.822 362.2294 572.1948 359.2015 572.3739L359.2463 576.0879C363.2287 576.237 366.8681 576.4011 370.1494 576.58 373.4158 576.7739 376.4588 576.9978 379.2478 577.2512V542.6028C379.2478 540.1117 379.5313 538.6054 380.1129 538.0982 380.6946 537.5911 382.1117 537.2779 384.349 537.1586V533.3998H379.8595C377.6369 533.3998 375.3998 533.37 373.1474 533.3253 370.8952 533.2805 368.5983 533.2209 366.2566 533.1314L366.0029 539.3659C364.1683 537.0392 361.8714 535.2792 359.1269 534.1008 356.3677 532.9225 353.1756 532.326 349.5365 532.326 344.7037 532.326 341.0793 533.6087 338.6631 536.1741 336.2468 538.7394 335.0384 542.5877 335.0384 547.7187Z" fill="#d91f04" data-index="6"/>
<path transform="matrix(1,0,0,-1,0,1080)" d="M395.8787 567.3027C395.8787 569.376 395.5059 570.7035 394.7601 571.2999 394.0143 571.8966 392.0454 572.2396 388.8386 572.3291V576.0879C392.6869 576.237 396.2367 576.4011 399.4733 576.58 402.7099 576.7739 405.7379 576.9978 408.5569 577.2512V566.4226C409.6457 569.8383 411.2714 572.4933 413.479 574.3874 415.6716 576.2965 418.1922 577.2512 421.0112 577.2512 423.7557 577.2512 425.9183 576.5352 427.4994 575.0884 429.0953 573.6416 429.8859 571.6729 429.8859 569.1671 429.8859 567.2877 429.349 565.7366 428.275 564.5432 427.2012 563.3501 425.829 562.7534 424.1883 562.7534 422.2344 562.7534 420.7277 563.3053 419.6687 564.3941 418.6097 565.4829 418.0878 567.049 418.0878 569.0775 418.0878 569.8083 418.1771 570.5243 418.371 571.2253 418.5502 571.9263 418.8484 572.6721 419.2662 573.4925 416.4321 573.1495 414.0607 571.2253 412.1515 567.75 410.2571 564.2748 409.3027 559.9791 409.3027 554.8929V542.9605C409.3027 540.2758 409.75 538.6204 410.6449 537.9789 411.5398 537.3374 414.1947 536.9797 418.6097 536.8901L418.6545 533.1314C415.7014 533.2507 412.9271 533.3403 410.3019 533.3998 407.6768 533.4446 405.2157 533.4744 402.9486 533.4744 401.3079 533.4744 399.2644 533.4446 396.8184 533.3998 394.3723 533.3403 391.7322 533.2507 388.8984 533.1314V536.8901C392.0006 537.069 393.9398 537.442 394.7153 538.0087 395.4909 538.5756 395.8787 540.231 395.8787 542.9605Z" fill="#d91f04" data-index="7"/>
<path transform="matrix(1,0,0,-1,0,1080)" d="M441.0128 567.3027C441.0128 569.376 440.64 570.7035 439.8942 571.2999 439.1484 571.8966 437.1795 572.2396 433.9726 572.3291V576.0879C437.9102 576.237 441.5199 576.4011 444.831 576.58 448.1274 576.7739 451.1999 576.9978 454.0487 577.2512V567.049C455.8535 570.42 458.1505 572.9556 460.9548 574.6708 463.7588 576.3861 467.0252 577.2512 470.7989 577.2512 475.721 577.2512 479.3604 575.9535 481.7021 573.3731 484.0438 570.778 485.2222 566.7656 485.2222 561.3216V542.9605C485.2222 540.2908 485.5501 538.6501 486.2214 538.0534 486.8926 537.4568 488.414 537.069 490.7707 536.8901V533.1314C487.4148 533.3102 484.8043 533.4296 482.9253 533.4744 481.0309 533.5342 479.4945 533.5639 478.3014 533.5639 477.108 533.5639 475.5719 533.5342 473.6925 533.4744 471.8132 533.4296 469.0536 533.3102 465.4443 533.1314V536.8901C468.4275 537.1883 470.232 537.5911 470.8585 538.1133 471.4849 538.6351 471.7981 540.2611 471.7981 542.9605V561.5005C471.7981 564.7521 471.2763 567.0788 470.2173 568.4661 469.173 569.8531 467.4577 570.5393 465.0712 570.5393 462.4163 570.5393 459.9703 569.4058 457.7627 567.1236 455.5403 564.8564 454.4368 562.6341 454.4368 560.4415V542.9605C454.4368 540.231 454.75 538.5756 455.3912 538.0237 456.0327 537.4718 457.539 537.0987 459.8957 536.8901V533.1314C456.0177 533.3102 453.2434 533.4296 451.5729 533.4744 449.9025 533.5342 448.545 533.5639 447.5307 533.5639 446.2778 533.5639 444.6371 533.5342 442.6237 533.4744 440.5952 533.4296 437.7314 533.3102 434.0324 533.1314V536.8901C437.3138 537.1883 439.2975 537.6061 439.9835 538.1728 440.6698 538.7545 441.0128 540.3356 441.0128 542.9605Z" fill="#d91f04" data-index="8"/>
<path transform="matrix(1,0,0,-1,0,1080)" d="M523.51 553.9683C517.7526 552.939 513.8748 551.7459 511.8908 550.3586 509.9071 548.9717 508.9226 546.9877 508.9226 544.3926 508.9226 542.4089 509.4298 540.8277 510.444 539.6494 511.4733 538.471 512.8455 537.8746 514.5608 537.8746 516.2462 537.8746 517.8572 538.3667 519.3785 539.3361 520.9146 540.3206 522.2869 541.7524 523.51 543.617ZM536.6653 563.0964V545.6752C536.6653 542.5877 536.8893 540.6786 537.3366 539.9478 537.7989 539.2168 538.6192 538.8588 539.8126 538.8588 540.5136 538.8588 541.1548 539.0379 541.7515 539.3809 542.3482 539.7389 542.9299 540.2758 543.4818 540.9918L545.7042 539.2913C544.1083 536.7855 542.3332 534.9957 540.3793 533.922 538.4254 532.8629 535.9944 532.326 533.0857 532.326 530.401 532.326 528.283 532.9525 526.7466 534.2054 525.1955 535.4731 524.3601 537.2481 524.211 539.5601 522.2869 537.1288 519.99 535.324 517.3053 534.1158 514.6353 532.9225 511.5478 532.326 508.0428 532.326 504.2095 532.326 501.2263 533.2357 499.1083 535.0555 497.0052 536.8751 495.9462 539.4555 495.9462 542.7666 495.9462 546.2121 497.2141 548.8821 499.7497 550.7912 502.2703 552.7003 507.0881 554.3561 514.188 555.7581 515.4406 555.9817 516.977 556.2502 518.7818 556.5336 521.9289 557.0408 523.51 557.9059 523.51 559.1588V564.3643C523.51 567.616 522.9431 569.9426 521.8095 571.3299 520.6759 572.7169 518.7969 573.4032 516.1717 573.4032 514.7099 573.4032 513.3824 573.224 512.1592 572.881 510.9364 572.523 509.8774 572.0457 509.0122 571.4342 509.2656 570.4498 509.4448 569.6294 509.5641 568.9732 509.6684 568.317 509.7283 567.7203 509.7283 567.1981 509.7283 565.0951 509.1466 563.4394 507.998 562.2015 506.8494 560.9636 505.2983 560.3372 503.3443 560.3372 501.7334 560.3372 500.4507 560.8293 499.4663 561.8288 498.4968 562.8129 498.0047 564.1407 498.0047 565.7961 498.0047 569.003 499.9139 571.7177 503.7321 573.925 507.5504 576.1474 512.4427 577.2512 518.379 577.2512 524.4795 577.2512 529.0435 576.0729 532.1013 573.7311 535.144 571.3894 536.6653 567.8991 536.6653 563.2605Z" fill="#d91f04" data-index="9"/>
<path transform="matrix(1,0,0,-1,0,1080)" d="M545.3464 576.4459C548.3443 576.2965 550.7606 576.1922 552.5952 576.1176 554.4448 576.0431 556.0109 575.9983 557.3234 575.9983 558.606 575.9983 560.1574 576.0431 561.977 576.1176 563.7969 576.1922 566.1981 576.2965 569.1662 576.4459L569.1214 572.6871C567.0037 572.5976 565.6314 572.3739 565.0347 572.0159 564.438 571.6431 564.1398 570.9866 564.1398 570.0172 564.1398 569.7638 564.1696 569.4803 564.2144 569.1671 564.2442 568.8689 564.3187 568.5256 564.4083 568.1378L571.7466 544.5865 580.2783 567.4368C580.4722 567.9887 580.6213 568.5256 580.7256 569.018 580.8302 569.5101 580.875 569.9276 580.875 570.2856 580.875 571.0167 580.6063 571.5386 580.0547 571.8815 579.5028 572.2098 578.2946 572.4782 576.43 572.6871V576.4459C579.1297 576.2965 581.3374 576.1922 583.0526 576.1176 584.7528 576.0431 586.1849 575.9983 587.3482 575.9983 588.4072 575.9983 589.7049 576.0281 591.2711 576.0879 592.8222 576.1474 595.0894 576.2667 598.0575 576.4459V572.6871C595.328 572.3442 593.9558 571.5386 593.9558 570.2856 593.9558 569.9577 593.9855 569.5997 594.0454 569.1969 594.0899 568.7793 594.1794 568.3765 594.2988 567.9737L601.1152 544.4073 608.9905 567.8396C609.1396 568.3317 609.2442 568.794 609.3187 569.2119 609.3933 569.6294 609.423 570.0172 609.423 570.3752 609.423 571.121 609.1696 571.6579 608.6625 571.9711 608.1554 572.2696 606.8276 572.508 604.7099 572.6871V576.4459C606.246 576.2965 607.5734 576.1922 608.6772 576.1176 609.781 576.0431 610.7355 575.9983 611.526 575.9983 612.4209 575.9983 613.4652 576.0431 614.6286 576.1176 615.7919 576.1922 617.2237 576.2965 618.9092 576.4459L618.954 572.6871C617.4326 572.6871 616.299 572.3739 615.5235 571.7622 614.7479 571.1508 614.0469 569.9426 613.4054 568.1378L605.3958 546.0182C604.8737 544.4374 604.1877 542.5132 603.3226 540.2163 602.4725 537.9341 601.4733 535.2942 600.3397 532.326L592.3298 532.9525 583.1121 564.2152 574.6252 542.4236C574.4911 542.0509 573.9242 540.6636 572.925 538.2921 571.9405 535.9207 571.0904 533.9367 570.3894 532.326L562.35 532.9525 550.7158 568.5854C550.1341 570.3007 549.4929 571.4192 548.8067 571.9263 548.1057 572.4334 547.0617 572.6871 545.6894 572.6871H545.3464Z" fill="#d91f04" data-index="10"/>
<path transform="matrix(1,0,0,-1,0,1080)" d="M648.9638 553.9683C643.2063 552.939 639.3285 551.7459 637.3446 550.3586 635.3609 548.9717 634.3764 546.9877 634.3764 544.3926 634.3764 542.4089 634.8835 540.8277 635.8978 539.6494 636.927 538.471 638.2993 537.8746 640.0145 537.8746 641.7 537.8746 643.3109 538.3667 644.8323 539.3361 646.3684 540.3206 647.7406 541.7524 648.9638 543.617ZM662.1191 563.0964V545.6752C662.1191 542.5877 662.343 540.6786 662.7903 539.9478 663.2527 539.2168 664.073 538.8588 665.2664 538.8588 665.9674 538.8588 666.6086 539.0379 667.2053 539.3809 667.802 539.7389 668.3837 540.2758 668.9356 540.9918L671.1579 539.2913C669.562 536.7855 667.787 534.9957 665.833 533.922 663.8791 532.8629 661.4481 532.326 658.5395 532.326 655.8548 532.326 653.7368 532.9525 652.2004 534.2054 650.6493 535.4731 649.8139 537.2481 649.6648 539.5601 647.7406 537.1288 645.4437 535.324 642.759 534.1158 640.0891 532.9225 637.0016 532.326 633.4965 532.326 629.6632 532.326 626.6801 533.2357 624.562 535.0555 622.459 536.8751 621.4 539.4555 621.4 542.7666 621.4 546.2121 622.6679 548.8821 625.2035 550.7912 627.7241 552.7003 632.5418 554.3561 639.6418 555.7581 640.8944 555.9817 642.4308 556.2502 644.2356 556.5336 647.3826 557.0408 648.9638 557.9059 648.9638 559.1588V564.3643C648.9638 567.616 648.3969 569.9426 647.2633 571.3299 646.1297 572.7169 644.2506 573.4032 641.6254 573.4032 640.1636 573.4032 638.8362 573.224 637.613 572.881 636.3901 572.523 635.3311 572.0457 634.466 571.4342 634.7194 570.4498 634.8986 569.6294 635.0179 568.9732 635.1222 568.317 635.182 567.7203 635.182 567.1981 635.182 565.0951 634.6003 563.4394 633.4517 562.2015 632.3031 560.9636 630.752 560.3372 628.7981 560.3372 627.1872 560.3372 625.9045 560.8293 624.92 561.8288 623.9506 562.8129 623.4585 564.1407 623.4585 565.7961 623.4585 569.003 625.3676 571.7177 629.1859 573.925 633.0042 576.1474 637.8965 577.2512 643.8328 577.2512 649.9332 577.2512 654.4973 576.0729 657.555 573.7311 660.5977 571.3894 662.1191 567.8991 662.1191 563.2605Z" fill="#d91f04" data-index="11"/>
<path transform="matrix(1,0,0,-1,0,1080)" d="M678.5858 590.1531C678.5858 591.9877 678.1833 593.2108 677.3927 593.8072 676.6021 594.4039 674.5289 594.7322 671.1582 594.7917V598.64C674.3948 598.7293 677.7805 598.8637 681.3006 599.0426 684.8206 599.2364 688.3855 599.4604 692.0099 599.7138V542.9605C692.0099 540.1417 692.3826 538.4412 693.1434 537.8746 693.9043 537.3077 695.679 536.9797 698.4533 536.8901L698.4981 533.1314C694.62 533.3102 691.7117 533.4296 689.8022 533.4744 687.8931 533.5342 686.342 533.5639 685.1489 533.5639 683.9555 533.5639 682.3894 533.5342 680.4652 533.4744 678.5413 533.4296 675.7671 533.3102 672.1424 533.1314V536.8901C675.0062 537.069 676.796 537.4718 677.5121 538.0982 678.2281 538.7247 678.5858 540.3356 678.5858 542.9605Z" fill="#d91f04" data-index="12"/>
<path transform="matrix(1,0,0,-1,0,1080)" d="M707.9542 590.1531C707.9542 591.9877 707.5517 593.2108 706.7611 593.8072 705.9705 594.4039 703.8972 594.7322 700.5266 594.7917V598.64C703.7631 598.7293 707.1489 598.8637 710.6689 599.0426 714.189 599.2364 717.7538 599.4604 721.3782 599.7138V542.9605C721.3782 540.1417 721.751 538.4412 722.5118 537.8746 723.2726 537.3077 725.0474 536.9797 727.8216 536.8901L727.8664 533.1314C723.9883 533.3102 721.08 533.4296 719.1706 533.4744 717.2614 533.5342 715.7103 533.5639 714.5172 533.5639 713.3238 533.5639 711.7577 533.5342 709.8335 533.4744 707.9097 533.4296 705.1354 533.3102 701.5107 533.1314V536.8901C704.3746 537.069 706.1644 537.4718 706.8804 538.0982 707.5964 538.7247 707.9542 540.3356 707.9542 542.9605Z" fill="#d91f04" data-index="13"/>
<path transform="matrix(1,0,0,-1,0,1080)" d="M759.6958 553.9683C753.9384 552.939 750.0606 551.7459 748.0766 550.3586 746.0929 548.9717 745.1084 546.9877 745.1084 544.3926 745.1084 542.4089 745.6156 540.8277 746.6298 539.6494 747.6591 538.471 749.0313 537.8746 750.7466 537.8746 752.432 537.8746 754.043 538.3667 755.5643 539.3361 757.1004 540.3206 758.4727 541.7524 759.6958 543.617ZM772.8511 563.0964V545.6752C772.8511 542.5877 773.0751 540.6786 773.5224 539.9478 773.9847 539.2168 774.805 538.8588 775.9984 538.8588 776.6994 538.8588 777.3406 539.0379 777.9373 539.3809 778.534 539.7389 779.1157 540.2758 779.6676 540.9918L781.89 539.2913C780.294 536.7855 778.519 534.9957 776.5651 533.922 774.6111 532.8629 772.1802 532.326 769.2715 532.326 766.5868 532.326 764.4688 532.9525 762.9324 534.2054 761.3813 535.4731 760.5459 537.2481 760.3968 539.5601 758.4727 537.1288 756.1757 535.324 753.4911 534.1158 750.8211 532.9225 747.7336 532.326 744.2286 532.326 740.3953 532.326 737.4121 533.2357 735.294 535.0555 733.191 536.8751 732.132 539.4555 732.132 542.7666 732.132 546.2121 733.3999 548.8821 735.9355 550.7912 738.4561 552.7003 743.2739 554.3561 750.3738 555.7581 751.6264 555.9817 753.1628 556.2502 754.9676 556.5336 758.1146 557.0408 759.6958 557.9059 759.6958 559.1588V564.3643C759.6958 567.616 759.1289 569.9426 757.9953 571.3299 756.8617 572.7169 754.9826 573.4032 752.3575 573.4032 750.8957 573.4032 749.5682 573.224 748.345 572.881 747.1222 572.523 746.0631 572.0457 745.198 571.4342 745.4514 570.4498 745.6306 569.6294 745.7499 568.9732 745.8542 568.317 745.914 567.7203 745.914 567.1981 745.914 565.0951 745.3324 563.4394 744.1838 562.2015 743.0352 560.9636 741.4841 560.3372 739.5301 560.3372 737.9192 560.3372 736.6365 560.8293 735.6521 561.8288 734.6826 562.8129 734.1905 564.1407 734.1905 565.7961 734.1905 569.003 736.0997 571.7177 739.9179 573.925 743.7362 576.1474 748.6285 577.2512 754.5648 577.2512 760.6653 577.2512 765.2293 576.0729 768.2871 573.7311 771.3298 571.3894 772.8511 567.8991 772.8511 563.2605Z" fill="#d91f04" data-index="14"/>

</g>
</svg>